<?xml version="1.0" encoding="utf-8"?>
<!-- Generator: Adobe Illustrator 24.3.0, SVG Export Plug-In . SVG Version: 6.00 Build 0)  -->
<svg version="1.1" id="Layer_1" xmlns="http://www.w3.org/2000/svg" xmlns:xlink="http://www.w3.org/1999/xlink" x="0px" y="0px"
	 viewBox="0 0 864 497.61" style="enable-background:new 0 0 864 497.61;" xml:space="preserve">
<style type="text/css">
	.st0{font-family:'LucidaCalligraphy-Italic';}
	.st1{font-size:182px;}
	.st2{font-size:36px;}
	.st3{fill:none;stroke:#231F20;stroke-width:2;stroke-miterlimit:10;}
</style>
<text transform="matrix(1 0 0 1 381.7095 253.2904)" class="st0 st1">s</text>
<text transform="matrix(1 0 0 1 288.8818 316.0508)" class="st0 st2">Flower Truck</text>
<path class="st3" d="M430.1,79.94c-87.23,4.13-194.96,74.2-193.55,166.13c1.47,95.86,121.02,176.56,220.97,156.45
	C575.5,378.78,646.53,218.53,589.77,125.1c-44.44-73.15-158.71-91.31-237.1-54.84c-116.59,54.25-161.11,232.76-83.87,319.35
	c79.32,88.92,264.03,55.12,317.74-35.48c16.77-28.29,17.35-56.34,17.74-75.81c1.53-74.92-36.79-198.38-150-227.42
	c-97-24.88-212.06,29.04-240.32,129.03c-26.04,92.14,32.91,183.37,104.84,222.58c100,54.51,203.64-3.25,220.97-12.9
	c28.11-15.66,82.23-45.82,95.16-103.23c17.35-76.99-49.73-157.11-117.74-188.71C475.85,78.47,439.15,79.51,430.1,79.94z"/>
</svg>
